<svg xmlns="http://www.w3.org/2000/svg" width="167" height="50" fill="none" xmlns:v="https://vecta.io/nano"><path d="M24.654 25.679V14.74c0-7.188 5.266-10.695 11.614-10.695S48.01 7.02 48.01 14.61v10.896c0 7.504-5.522 10.681-11.699 10.681s-11.657-2.875-11.657-10.508zm16.154 0V14.438c.033-.605-.063-1.209-.282-1.773a4.23 4.23 0 0 0-.985-1.495 4.18 4.18 0 0 0-1.51-.947c-.565-.203-1.166-.28-1.763-.228-2.847 0-4.398 1.696-4.398 4.629v11.069a4.19 4.19 0 0 0 .215 1.808 4.16 4.16 0 0 0 .96 1.542 4.11 4.11 0 0 0 1.52.979c.572.209 1.183.287 1.789.228a4.14 4.14 0 0 0 1.773-.266 4.18 4.18 0 0 0 1.5-.991c.423-.436.748-.959.952-1.534a4.28 4.28 0 0 0 .23-1.795m9.796-21.619h11.447c5.918 0 10.611 2.853 10.611 9.273v11.769c0 6.833-4.693 9.815-10.556 9.815H50.605V4.045zm10.779 25.108c.557.031 1.113-.059 1.634-.263a3.96 3.96 0 0 0 1.387-.922 4.08 4.08 0 0 0 .9-1.421c.199-.533.287-1.104.257-1.674V14.045c.044-.585-.038-1.172-.24-1.721s-.52-1.045-.931-1.453-.904-.719-1.446-.91a3.81 3.81 0 0 0-1.686-.195h-3.635v19.387h3.76zm54.353-6.877c3.663-1.426 5.401-4.636 5.401-8.788 0-5.592-3.39-9.444-10.284-9.444H98.615v30.857h7.182V9.58h4.152c2.743 0 4.05 1.726 4.05 4.28 0 2.853-1.436 4.365-4.194 4.365h-2.973l7.297 16.577h7.842l-6.234-12.526z" fill="#184479"/><path d="M98.625 46.392v-.549h1.727v.379c.004.204.052.405.141.59s.218.35.377.484a1.52 1.52 0 0 0 .547.293 1.55 1.55 0 0 0 .623.052c1.239 0 1.6-.662 1.6-1.892a1.65 1.65 0 0 0-.101-.709 1.69 1.69 0 0 0-.392-.607 1.79 1.79 0 0 0-.613-.399c-.231-.09-.479-.131-.728-.121h-1.034v-1.476h.927c.246.025.496-.006.728-.09a1.63 1.63 0 0 0 .614-.392c.17-.175.297-.385.371-.615a1.53 1.53 0 0 0 .053-.71 1.42 1.42 0 0 0-.054-.634 1.44 1.44 0 0 0-.325-.552 1.51 1.51 0 0 0-.537-.367 1.55 1.55 0 0 0-.645-.112c-.888 0-1.503.397-1.503 1.325v.426h-1.698v-.445c0-1.712 1.308-2.782 3.366-2.782.414-.043.832.001 1.226.131s.754.341 1.055.619.536.617.688.992a2.7 2.7 0 0 1 .193 1.181 2.5 2.5 0 0 1-.392 1.629 2.63 2.63 0 0 1-1.345 1.048h0c.597.159 1.122.51 1.488.994a2.61 2.61 0 0 1 .532 1.674 3.1 3.1 0 0 1-.23 1.282 3.18 3.18 0 0 1-.742 1.085 3.28 3.28 0 0 1-1.128.706 3.37 3.37 0 0 1-1.325.209c-2.274 0-3.474-1.088-3.474-2.678m8.494-.297v-5.551c0-1.992 1.492-3.04 3.312-3.04s3.057 1.038 3.057 2.568v.623h-1.729v-.5c0-.812-.573-1.265-1.428-1.265-.194-.02-.389.004-.573.071a1.32 1.32 0 0 0-.489.316 1.38 1.38 0 0 0-.314.502 1.42 1.42 0 0 0-.08.593V43.1a2.58 2.58 0 0 1 .97-.973c.402-.227.856-.338 1.314-.32a2.31 2.31 0 0 1 .91.211c.287.132.547.321.763.557s.386.514.498.818a2.54 2.54 0 0 1 .158.954v1.803c0 1.784-1.437 2.889-3.266 2.889a2.8 2.8 0 0 1-1.164-.164 2.88 2.88 0 0 1-1.006-.629c-.291-.279-.523-.616-.684-.991s-.245-.78-.249-1.191h0zm4.777.142v-1.699a1.34 1.34 0 0 0-.074-.566 1.31 1.31 0 0 0-.301-.477 1.23 1.23 0 0 0-.47-.296 1.21 1.21 0 0 0-.547-.058c-.222.008-.44.063-.642.159a1.69 1.69 0 0 0-.534.402 1.76 1.76 0 0 0-.343.584c-.076.216-.111.446-.101.676v1.133c-.004.204.033.407.108.596a1.48 1.48 0 0 0 .329.502 1.42 1.42 0 0 0 .495.323 1.38 1.38 0 0 0 .579.09c.189.021.38.001.561-.06a1.34 1.34 0 0 0 .489-.292 1.41 1.41 0 0 0 .333-.473 1.46 1.46 0 0 0 .118-.573m3.188-.138v-5.541c0-2.064 1.827-3.025 3.715-3.025s3.716.942 3.716 3.006v5.56c0 2.045-1.838 3.006-3.686 3.006s-3.745-.942-3.745-2.987v-.019zm5.483.019v-5.673a1.42 1.42 0 0 0-.141-.602 1.5 1.5 0 0 0-.386-.498 1.63 1.63 0 0 0-.568-.31c-.21-.065-.432-.089-.653-.069-.226-.021-.454.002-.669.069a1.66 1.66 0 0 0-.583.318c-.168.143-.303.317-.395.512s-.14.405-.14.618v5.503a1.4 1.4 0 0 0 .1.652c.086.207.22.394.392.546a1.59 1.59 0 0 0 .606.332c.226.066.465.085.699.053a1.65 1.65 0 0 0 .682-.061c.219-.068.419-.181.586-.331a1.45 1.45 0 0 0 .376-.536 1.36 1.36 0 0 0 .094-.636" fill="#fb5303"/><path d="M76.557 4.045h19.422v5.806H83.545v6.491h9.864v5.792h-9.864v6.933H96.02v5.835H76.557V4.045zm-64.248.057H0v30.8h7.19V9.627h3.796c2.574 0 3.926 1.851 3.926 4.4 0 2.848-1.524 4.67-4.228 4.67H8.383l2.358 5.397h1.38c6.931 0 9.937-4.671 9.937-10.366 0-5.397-3.092-9.683-9.678-9.683" fill="#184479"/><g fill="#fb5303"><path d="M166.095 20.131v-1.238h-7.051l6.87-1.367a21.56 21.56 0 0 0-.504-2.515l-6.548 1.248 6.196-2.545a20.19 20.19 0 0 0-1.008-2.406l-5.822 2.386 5.238-3.464a18.95 18.95 0 0 0-1.581-2.306l-4.906 3.254 4.17-4.152c-.622-.697-1.296-1.347-2.015-1.946l-3.888 3.853 3.022-4.542a19.92 19.92 0 0 0-2.448-1.617l-2.77 4.252 1.964-4.681c-.878-.438-1.787-.812-2.72-1.118l-1.813 4.322.927-4.592c-.99-.28-2-.48-3.022-.599l-.847 4.202V.247c-.513 0-1.007-.06-1.551-.06l-1.551.06v11.769a8 8 0 0 1 1.551-.15h.081c.574-.007 1.148.043 1.712.15.535.118 1.058.285 1.562.499a8.24 8.24 0 0 1 2.72 1.906 8.1 8.1 0 0 1 1.007 1.348c.286.461.526.949.715 1.457a8 8 0 0 1 .433 1.637c.061.41.091.824.091 1.238v.619c-.048.644-.169 1.28-.363 1.896a9.11 9.11 0 0 1-.765 1.687c-.335.556-.734 1.072-1.189 1.537a8.64 8.64 0 0 1-1.44 1.178 8.24 8.24 0 0 1-1.733.858 8.12 8.12 0 0 1-1.824.429 8.49 8.49 0 0 1-2.014 0v11.739h1.007 1.007v-11.06l2.479 10.78a18.67 18.67 0 0 0 2.014-.439l-2.468-10.441 4.685 9.652a20.77 20.77 0 0 0 1.954-.928l-4.533-9.353 6.517 8.115c.592-.418 1.16-.868 1.703-1.348l-6.306-7.836 7.908 6.249a19.37 19.37 0 0 0 1.45-1.797l-7.636-5.989 8.805 4.202a18.87 18.87 0 0 0 1.007-2.076l-8.492-4.053 9.197 2.086a21.33 21.33 0 0 0 .554-2.406l-8.854-1.996h9.066v-1.228m-26.178 18.949a18.33 18.33 0 0 0 1.793.479l3.022-11.299a8.18 8.18 0 0 1-1.793-.479l-3.022 11.299z"/><path d="M141.016 26.779l-5.903 10.131a17.74 17.74 0 0 0 1.611.928l5.904-10.131a8.3 8.3 0 0 1-1.612-.928m-1.52-1.438l-8.341 8.265 1.198 1.198 8.382-8.265a8.57 8.57 0 0 1-1.209-1.198m-1.17-1.836l-10.225 5.849a15.98 15.98 0 0 0 .856 1.457l10.225-5.819a8.16 8.16 0 0 1-.856-1.467m-.647-2.006l-11.393 2.995.393 1.487 11.403-2.994a8.05 8.05 0 0 1-.403-1.477m-.079-1.398v-.779h-11.766v.779.759h11.847v-.759m.567-3.215l-11.212-3.613-.433 1.318 11.222 3.613a7.72 7.72 0 0 1 .423-1.318m1.378-2.196l-9.54-6.867-.816 1.118 9.54 6.867a8.23 8.23 0 0 1 .816-1.118m1.934-1.626l-6.901-9.453-1.007.719 6.931 9.453c.319-.262.655-.502 1.007-.719m2.377-.999L140.35.976l-1.178.379 3.646 11.12c.382-.159.776-.286 1.179-.379"/></g></svg>